<svg width="178" height="500" viewBox="0 0 178 500" fill="none" xmlns="http://www.w3.org/2000/svg">
<rect x="88.7791" width="125.553" height="125.553" rx="11.4139" transform="rotate(45 88.7791 0)" fill="#E5E2E1"/>
<rect x="88.7791" y="80.4678" width="125.553" height="125.553" rx="11.4139" transform="rotate(45 88.7791 80.4678)" fill="#E5E2E1"/>
<rect x="88.7791" y="160.936" width="125.553" height="125.553" rx="11.4139" transform="rotate(45 88.7791 160.936)" fill="#E5E2E1"/>
<rect x="88.7791" y="241.974" width="125.553" height="125.553" rx="11.4139" transform="rotate(45 88.7791 241.974)" fill="#E5E2E1"/>
<rect x="88.7791" y="322.442" width="125.553" height="125.553" rx="11.4139" transform="rotate(45 88.7791 322.442)" fill="#E5E2E1"/>
<rect x="88.2896" y="8.56042" width="114.139" height="114.139" rx="9" transform="rotate(45 88.2896 8.56042)" fill="#E5E2E1"/>
<rect x="88.2896" y="89.0282" width="114.139" height="114.139" rx="9" transform="rotate(45 88.2896 89.0282)" fill="#66CC8A"/>
<rect x="88.2896" y="169.496" width="114.139" height="114.139" rx="9" transform="rotate(45 88.2896 169.496)" fill="#377CFB"/>
<rect x="88.2896" y="249.964" width="114.139" height="114.139" rx="9" transform="rotate(45 88.2896 249.964)" fill="#EA5234"/>
<rect x="88.2896" y="330.432" width="114.139" height="114.139" rx="9" transform="rotate(45 88.2896 330.432)" fill="#333C4D"/>
</svg>
